:FULLY-SPECIFIED
:FORCE-ALL-JOINTS-BE-3DOF
:DEGREES
340
root 8.17334 16.0429 -20.5092 11.1492 24.3117 4.74858
lfemur -11.6996 19.3495 -10.792
ltibia 43.521 0 0
lfoot 1.99374 21.9605 0
ltoes -26.9764 0 0
rfemur -46.5197 -13.2637 8.066
rtibia 54.9294 0 0
rfoot 2.33135 -18.0416 0
rtoes 9.59307 0 0
lowerback 0.04225 -1.75986 -1.91874
upperback 1.9544 -2.3058 -0.125779
thorax 2.05492 -1.18254 0.887887
lowerneck -5.35498 -8.7523 -0.434768
upperneck -2.56935 -11.6236 6.48756
head 0.541009 -5.77363 1.82786
lclavicle -2.76914e-14 1.18419e-14 0
lhumerus -47.9118 -35.6622 109.567
lradius 58.031 0 0
lwrist 18.9109 0 0
lhand 5.96889 12.256 0
lfingers 7.12502 0 0
lthumb 31.2846 39.5152 0
rclavicle -2.76914e-14 1.18419e-14 0
rhumerus -20.6704 18.7869 -70.9848
rradius 83.8641 0 0
rwrist 2.77305 0 0
rhand 14.4534 -9.82483 0
rfingers 7.12502 0 0
rthumb 39.1591 -753.552 0
341
root 8.10339 16.0655 -20.3529 10.9373 22.7952 4.30905
lfemur -11.9849 19.2213 -10.263
ltibia 45.0453 0 0
lfoot 2.06932 20.3504 0
ltoes -24.6759 0 0
rfemur -45.8589 -13.4242 9.21865
rtibia 54.4404 0 0
rfoot 1.32859 -16.9695 0
rtoes 9.56918 0 0
lowerback 0.165082 -1.65068 -1.78635
upperback 1.95781 -2.16262 -0.0238206
thorax 1.98497 -1.10967 0.921164
lowerneck -5.47552 -8.50523 -0.406055
upperneck -2.37444 -11.3048 6.35695
head 0.605654 -5.61063 1.78544
lclavicle -2.61544e-14 1.18135e-14 0
lhumerus -47.7311 -34.975 109.212
lradius 57.9926 0 0
lwrist 18.7437 0 0
lhand 5.33139 12.0502 0
lfingers 7.12502 0 0
lthumb 30.6748 39.4038 0
rclavicle -2.61544e-14 1.18135e-14 0
rhumerus -21.7175 18.0636 -72.1358
rradius 83.4182 0 0
rwrist 2.76646 0 0
rhand 11.752 -11.3377 0
rfingers 7.12502 0 0
rthumb 36.5754 -755.405 0
342
root 8.03343 16.0881 -20.1966 10.7254 21.2787 3.86952
lfemur -12.2703 19.0931 -9.73412
ltibia 46.5696 0 0
lfoot 2.1449 18.7404 0
ltoes -22.3753 0 0
rfemur -45.198 -13.5846 10.3713
rtibia 53.9514 0 0
rfoot 0.32583 -15.8973 0
rtoes 9.54528 0 0
lowerback 0.287913 -1.5415 -1.65397
upperback 1.96123 -2.01943 0.0781383
thorax 1.91503 -1.03681 0.954441
lowerneck -5.59606 -8.25816 -0.377343
upperneck -2.17953 -10.986 6.22634
head 0.6703 -5.44763 1.74303
lclavicle -2.46173e-14 1.17851e-14 0
lhumerus -47.5504 -34.2879 108.856
lradius 57.9541 0 0
lwrist 18.5765 0 0
lhand 4.69389 11.8444 0
lfingers 7.12502 0 0
lthumb 30.0649 39.2924 0
rclavicle -2.46173e-14 1.17851e-14 0
rhumerus -22.7646 17.3404 -73.2868
rradius 82.9724 0 0
rwrist 2.75987 0 0
rhand 9.05049 -12.8506 0
rfingers 7.12502 0 0
rthumb 33.9918 -757.258 0
343
root 7.96347 16.1107 -20.0403 10.5135 19.7622 3.42999
lfemur -12.5556 18.965 -9.20521
ltibia 48.094 0 0
lfoot 2.22048 17.1304 0
ltoes -20.0748 0 0
rfemur -44.5372 -13.7451 11.5239
rtibia 53.4624 0 0
rfoot -0.676929 -14.8252 0
rtoes 9.52139 0 0
lowerback 0.410745 -1.43232 -1.52159
upperback 1.96464 -1.87625 0.180097
thorax 1.84508 -0.963947 0.987718
lowerneck -5.7166 -8.0111 -0.348631
upperneck -1.98461 -10.6671 6.09572
head 0.734946 -5.28463 1.70061
lclavicle -2.30803e-14 1.17567e-14 0
lhumerus -47.3697 -33.6007 108.501
lradius 57.9157 0 0
lwrist 18.4094 0 0
lhand 4.05639 11.6386 0
lfingers 7.12502 0 0
lthumb 29.455 39.181 0
rclavicle -2.30803e-14 1.17567e-14 0
rhumerus -23.8118 16.6172 -74.4378
rradius 82.5265 0 0
rwrist 2.75328 0 0
rhand 6.34903 -14.3634 0
rfingers 7.12502 0 0
rthumb 31.4082 -759.111 0
